0
SECTION
2
HEADER
9
$INSUNITS
70
4
9
$ACADVER
1
AC1014
9
$HANDSEED
5
FFFF
0
ENDSEC
0
SECTION
2
TABLES
0
TABLE
2
VPORT
5
8
100
AcDbSymbolTable
0
ENDTAB
0
TABLE
2
LTYPE
5
5
100
AcDbSymbolTable
0
LTYPE
5
14
100
AcDbSymbolTableRecord
100
AcDbLinetypeTableRecord
2
BYBLOCK
70
0
0
LTYPE
5
15
100
AcDbSymbolTableRecord
100
AcDbLinetypeTableRecord
2
BYLAYER
70
0
0
ENDTAB
0
TABLE
2
LAYER
5
2
100
AcDbSymbolTable
70
2
0
LAYER
5
50
100
AcDbSymbolTableRecord
100
AcDbLayerTableRecord
2
0
70
0
6
CONTINUOUS
0
ENDTAB
0
TABLE
2
STYLE
5
3
100
AcDbSymbolTable
70
1
0
STYLE
5
11
100
AcDbSymbolTableRecord
100
AcDbTextStyleTableRecord
2
STANDARD
70
0
0
ENDTAB
0
TABLE
2
VIEW
5
6
100
AcDbSymbolTable
70
0
0
ENDTAB
0
TABLE
2
UCS
5
7
100
AcDbSymbolTable
70
0
0
ENDTAB
0
TABLE
2
APPID
5
9
100
AcDbSymbolTable
70
2
0
APPID
5
12
100
AcDbSymbolTableRecord
100
AcDbRegAppTableRecord
2
ACAD
70
0
0
ENDTAB
0
TABLE
2
DIMSTYLE
5
A
100
AcDbSymbolTable
70
1
0
ENDTAB
0
TABLE
2
BLOCK_RECORD
5
1
100
AcDbSymbolTable
70
1
0
BLOCK_RECORD
5
1F
100
AcDbSymbolTableRecord
100
AcDbBlockTableRecord
2
*MODEL_SPACE
0
BLOCK_RECORD
5
1B
100
AcDbSymbolTableRecord
100
AcDbBlockTableRecord
2
*PAPER_SPACE
0
ENDTAB
0
ENDSEC
0
SECTION
2
BLOCKS
0
BLOCK
5
20
100
AcDbEntity
100
AcDbBlockBegin
2
*MODEL_SPACE
0
ENDBLK
5
21
100
AcDbEntity
100
AcDbBlockEnd
0
BLOCK
5
1C
100
AcDbEntity
100
AcDbBlockBegin
2
*PAPER_SPACE
0
ENDBLK
5
1D
100
AcDbEntity
100
AcDbBlockEnd
0
ENDSEC
0
SECTION
2
ENTITIES
0
LWPOLYLINE
5
100
100
AcDbEntity
8
0
100
AcDbPolyline
90
8
70
1
43
0.0
10
38.104038286209104
20
55.940056324005134
10
0.50403828620910529
20
55.940056324005134
42
0.41421356237309503
10
0.30403828620910511
20
55.740056324005131
10
0.30403828620910511
20
0.14005632400512447
42
0.41421356237309503
10
0.50403828620910529
20
-0.059943675994875711
10
38.104038286209104
20
-0.059943675994875711
42
0.41421356237309503
10
38.304038286209106
20
0.14005632400512447
10
38.304038286209106
20
55.740056324005131
42
0.41421356237309503
0
LWPOLYLINE
5
101
100
AcDbEntity
8
0
100
AcDbPolyline
90
12
70
1
43
0.0
10
30.668340109588186
20
27.516380054861127
42
0.62133435899545497
10
30.692485528277977
20
28.41260476281899
10
27.719883086785259
20
29.98220412548541
42
0.12205399035975996
10
27.486419338751105
20
30.040056324005128
10
11.611789736912106
20
30.040056324005128
42
0.10840760079948751
10
11.402471407566106
20
29.99413323048713
10
7.8656226278053261
20
28.363732593150644
42
0.62133435900103118
10
7.8414772091161051
20
27.467507885189129
10
10.814079650610173
20
25.897908522525256
42
0.12205399036020861
10
11.047543398645105
20
25.840056324005126
10
26.922173000484108
20
25.840056324005126
42
0.10840760079902648
10
27.131491329829103
20
25.885979417523124
0
LWPOLYLINE
5
102
100
AcDbEntity
8
0
100
AcDbPolyline
90
8
70
1
43
0.0
10
27.715454460645276
20
6.6471226946602657
42
0.63707026080817308
10
28.590880558711291
20
6.8816924106700927
10
32.074739242285411
20
26.639636824964779
42
0.60531470062536508
10
31.373017036429111
20
27.180537820279127
10
27.836168256676302
20
25.550137182942706
42
0.24586163648952608
10
27.553082709515103
20
25.182884365295127
10
24.920953985931096
20
10.255340588337127
42
0.22169466264328194
10
25.030335640878107
20
9.8471226946601238
0
LWPOLYLINE
5
103
100
AcDbEntity
8
0
100
AcDbPolyline
90
8
70
1
43
0.0
10
3.8557432732107544
20
6.3230785455645444
42
0.70020753820962878
10
4.1771370780541073
20
5.440056324005127
10
26.872805573214109
20
5.440056324005127
42
0.63707026080711893
10
27.255827794774106
20
6.2614501288481295
10
24.570708975006525
20
9.4614501288484796
42
0.22169466264288146
10
24.18768675344711
20
9.6400563240051262
10
7.9907485743561057
20
9.6400563240051262
42
0.17632698070891614
10
7.669354769512104
20
9.5230785455641254
0
LWPOLYLINE
5
104
100
AcDbEntity
8
0
100
AcDbPolyline
90
8
70
1
43
0.0
10
2.6562730260500667
20
7.2525515218289582
42
0.70020753821007009
10
3.4700707073994597
20
6.7827052114357045
10
7.2836822037004589
20
9.9827052114357056
42
0.1763269807086372
10
7.4546922753631062
20
10.278903344162128
10
10.087582048606116
20
25.210763248210128
42
0.3257156555811333
10
9.8286419201341069
20
25.739735138524125
10
6.8560394786402545
20
27.30933450118841
42
0.50861913079249732
10
6.130171854100106
20
26.95401078854113
0
LWPOLYLINE
5
105
100
AcDbEntity
8
0
100
AcDbPolyline
90
7
70
1
43
0.0
10
13.727609324022104
20
45.854383758185122
10
11.061550994119289
20
30.734415621774097
42
-0.24586163648995638
10
10.778465446958911
20
30.367162804125549
10
7.2416166671979108
20
28.73676216678955
42
-0.60531470062335813
10
6.5398944613459253
20
29.277663162104158
10
10.01719601370641
20
48.998420237335253
42
-0.63707026081187301
10
10.892622111774417
20
49.232989953346227
0
LWPOLYLINE
5
106
100
AcDbEntity
8
0
100
AcDbPolyline
90
6
70
1
43
0.0
10
30.799313115189104
20
46.240056324005124
10
14.187235989894107
20
46.240056324005124
10
11.35224877764772
20
49.618662519158164
42
-0.63707026081088525
10
11.735270999204106
20
50.440056324005127
10
34.430939494359109
20
50.440056324005127
42
-0.70020753821181925
10
34.752333299200203
20
49.557034102443822
0
LWPOLYLINE
5
107
100
AcDbEntity
8
0
100
AcDbPolyline
90
7
70
1
43
0.0
10
31.184985680999109
20
45.780429658125129
10
35.138005865013085
20
49.097407436572311
42
-0.70020753821668547
10
35.951803546364204
20
48.627561126175991
10
32.471592117135408
20
28.890301319192776
42
-0.50861913079071153
10
31.745724492598086
20
28.534977606543194
10
28.773122051109176
20
30.104576969209262
42
-0.32571565558000359
10
28.514181922637896
20
30.633548859521987
0
CIRCLE
5
108
100
AcDbEntity
8
0
100
AcDbCircle
10
4.3040382862091064
20
48.340056324005126
30
3.5762788286319847e-08
40
2.1000000000000001
210
5.3438168648603834e-24
220
-6.8422776578360209e-49
230
1
0
CIRCLE
5
109
100
AcDbEntity
8
0
100
AcDbCircle
10
19.322605723344108
20
60.960122364135131
30
0
40
1.4999999999999991
210
0
220
0
230
1
0
CIRCLE
5
110
100
AcDbEntity
8
0
100
AcDbCircle
10
19.322605723344108
20
-5.0800097161248745
30
0
40
1.5000000000000002
210
0
220
0
230
1
0
ENDSEC
0
SECTION
2
OBJECTS
0
DICTIONARY
5
C
100
AcDbDictionary
3
ACAD_GROUP
350
D
3
ACAD_MLINESTYLE
350
17
0
DICTIONARY
5
D
100
AcDbDictionary
0
DICTIONARY
5
1A
330
C
100
AcDbDictionary
0
DICTIONARY
5
17
100
AcDbDictionary
0
ENDSEC
0
EOF
